<svg xmlns="http://www.w3.org/2000/svg" xmlns:xlink="http://www.w3.org/1999/xlink" width="500" height="500" viewBox="0 0 132.292 132.292"><defs><linearGradient id="i" x1="129" x2="129" y1="11" y2="245" gradientUnits="userSpaceOnUse"><stop offset="0" style="stop-color:#494949"/><stop offset="1" style="stop-color:#000"/></linearGradient><linearGradient id="h" x1="94.524" x2="157.156" y1="116.933" y2="179.565" gradientTransform="matrix(.49587 0 0 .49587 -317.124 488.095)" gradientUnits="userSpaceOnUse"><stop offset="0" style="stop-color:#093"/><stop offset=".455" style="stop-color:#006a00"/><stop offset="1" style="stop-color:#033"/></linearGradient><linearGradient id="c"><stop offset="0" style="stop-color:#000;stop-opacity:1"/><stop offset="1" style="stop-color:#000;stop-opacity:0"/></linearGradient><linearGradient id="d"><stop offset="0" style="stop-color:#fff;stop-opacity:1"/><stop offset="1" style="stop-color:#fff;stop-opacity:0"/></linearGradient><linearGradient id="a"><stop offset="0" style="stop-color:#eeeeec;stop-opacity:1"/><stop offset="1" style="stop-color:#eeeeec;stop-opacity:0"/></linearGradient><linearGradient xlink:href="#a" id="o" x1="17.66" x2="23.032" y1="36.68" y2="31.111" gradientTransform="matrix(.89667 0 0 .89667 -122.82 187.557)" gradientUnits="userSpaceOnUse"/><linearGradient xlink:href="#a" id="n" x1="20.807" x2="17.449" y1="36.825" y2="30.901" gradientTransform="matrix(.89667 0 0 .89667 -206.047 -303.066)" gradientUnits="userSpaceOnUse"/><linearGradient xlink:href="#b" id="m" x1="16.794" x2="22.053" y1="30.676" y2="37.128" gradientTransform="matrix(.89667 0 0 .89667 -158.68 -250.85)" gradientUnits="userSpaceOnUse"/><linearGradient xlink:href="#d" id="k" x1="14.375" x2="30.438" y1="31.063" y2="44.063" gradientTransform="matrix(.89667 0 0 .89667 -195.525 -287.56)" gradientUnits="userSpaceOnUse"/><linearGradient xlink:href="#e" id="j" x1="14.496" x2="26.737" y1="29.88" y2="42.564" gradientTransform="matrix(.89667 0 0 .89667 -158.68 -250.85)" gradientUnits="userSpaceOnUse"/><linearGradient id="b"><stop offset="0" style="stop-color:#888a85;stop-opacity:1"/><stop offset="1" style="stop-color:#d3d7cf;stop-opacity:1"/></linearGradient><linearGradient id="e"><stop offset="0" style="stop-color:#d3d7cf;stop-opacity:1"/><stop offset="1" style="stop-color:#888a85;stop-opacity:1"/></linearGradient><linearGradient id="f" x1="139.866" x2="202.497" y1="75.714" y2="138.345" gradientTransform="matrix(.49587 0 0 .49587 -317.124 481.745)" gradientUnits="userSpaceOnUse"><stop offset="0" style="stop-color:#e14e30"/><stop offset=".472" style="stop-color:#ff5b00"/><stop offset="1" style="stop-color:#c51700"/></linearGradient><linearGradient id="g" x1="50.099" x2="112.73" y1="75.943" y2="138.574" gradientTransform="matrix(.49587 0 0 .49587 -317.124 481.745)" gradientUnits="userSpaceOnUse"><stop offset="0" style="stop-color:#900"/><stop offset=".455" style="stop-color:#7c0000"/><stop offset="1" style="stop-color:#600000"/></linearGradient><linearGradient xlink:href="#f" id="p" x1="139.866" x2="202.497" y1="75.714" y2="138.345" gradientTransform="matrix(.44463 0 0 .44463 -411.952 501.414)" gradientUnits="userSpaceOnUse"/><linearGradient xlink:href="#path266_6_" id="q" x1="385.976" x2="498.108" y1="1061.968" y2="1056.065" gradientTransform="matrix(.34432 0 0 .34432 -249.29 143.588)" gradientUnits="userSpaceOnUse"/><linearGradient xlink:href="#g" id="r" x1="50.099" x2="112.73" y1="75.943" y2="138.574" gradientTransform="matrix(.44463 0 0 .44463 -411.952 501.414)" gradientUnits="userSpaceOnUse"/><linearGradient xlink:href="#path266_7_" id="s" x1="152.205" x2="264.341" y1="1062.563" y2="1056.66" gradientTransform="matrix(.34432 0 0 .34432 -249.29 143.588)" gradientUnits="userSpaceOnUse"/><linearGradient xlink:href="#h" id="t" x1="94.524" x2="157.156" y1="116.933" y2="179.565" gradientTransform="matrix(.44463 0 0 .44463 -411.952 507.108)" gradientUnits="userSpaceOnUse"/><linearGradient xlink:href="#path266_8_" id="u" x1="267.897" x2="380.034" y1="1169.309" y2="1163.406" gradientTransform="matrix(.34432 0 0 .34432 -249.29 142.264)" gradientUnits="userSpaceOnUse"/><linearGradient xlink:href="#i" id="w" x1="129" x2="129" y1="11" y2="245" gradientTransform="matrix(.20759 0 0 .20759 -25.126 181.827)" gradientUnits="userSpaceOnUse"/><linearGradient xlink:href="#c" id="x" x1="20.781" x2="20.813" y1="24.594" y2="23.531" gradientTransform="matrix(.89667 0 0 .89667 368.857 221.435)" gradientUnits="userSpaceOnUse"/><linearGradient xlink:href="#i" id="y" x1="129" x2="129" y1="11" y2="245" gradientTransform="matrix(.20759 0 0 .20759 -25.126 181.827)" gradientUnits="userSpaceOnUse"/><linearGradient xlink:href="#c" id="z" x1="20.781" x2="20.813" y1="24.594" y2="23.531" gradientTransform="matrix(.89667 0 0 .89667 368.857 221.435)" gradientUnits="userSpaceOnUse"/><linearGradient xlink:href="#i" id="A" x1="129" x2="129" y1="11" y2="245" gradientTransform="matrix(.20759 0 0 .20759 -25.126 181.827)" gradientUnits="userSpaceOnUse"/><linearGradient xlink:href="#c" id="B" x1="20.781" x2="20.813" y1="24.594" y2="23.531" gradientTransform="matrix(.89667 0 0 .89667 368.857 221.435)" gradientUnits="userSpaceOnUse"/><linearGradient xlink:href="#i" id="C" x1="129" x2="129" y1="11" y2="245" gradientTransform="translate(-110.52 130.54)scale(.23151)" gradientUnits="userSpaceOnUse"/><linearGradient xlink:href="#c" id="D" x1="20.781" x2="20.813" y1="24.594" y2="23.531" gradientUnits="userSpaceOnUse"/><radialGradient xlink:href="#c" id="l" cx="42.5" cy="34.5" r="8.688" fx="42.5" fy="34.5" gradientTransform="matrix(.89667 0 0 .89345 -179.304 -250.739)" gradientUnits="userSpaceOnUse"/><marker id="v" orient="auto" refX="0" refY="0" style="overflow:visible"><path d="M8.719 4.034-2.207.016 8.719-4.002c-1.746 2.372-1.736 5.618 0 8.036z" style="fill:purple;fill-opacity:1;fill-rule:evenodd;stroke:purple;stroke-width:.625;stroke-linejoin:round;stroke-opacity:1" transform="matrix(-.3 0 0 -.3 .69 0)"/></marker><filter id="E" width="1.032" height="1.093" x="-.016" y="-.046" style="color-interpolation-filters:sRGB"><feGaussianBlur stdDeviation=".072"/></filter></defs><g style="display:inline"><path d="M-284.264 536.185h132.748v132.748h-132.748z" style="opacity:.98000004;fill:#f9f9f9;fill-opacity:1;stroke:none;stroke-width:1;stroke-linejoin:round;stroke-miterlimit:4;stroke-dasharray:none;stroke-opacity:1" transform="translate(284.264 -536.44)"/></g><g style="stroke-width:3.02774787" transform="matrix(.36834 0 0 .36834 20.536 42.536)"><rect width="79.375" height="26.458" x="103.565" y="86.845" ry="8.118" style="opacity:1;fill:#ff8c00;fill-opacity:.89592758;fill-rule:nonzero;stroke:none;stroke-width:.76467842;stroke-linecap:round;stroke-linejoin:round;stroke-miterlimit:4;stroke-dasharray:none;stroke-dashoffset:0;stroke-opacity:1;paint-order:markers fill stroke"/><g style="stroke-width:3.02774787" transform="translate(72.549 43.834)scale(.78573)"><path d="M56 62.21a9.08 9.08 0 0 0-1.438.187h-.03a9.056 9.056 0 0 0-2.407.875l.656 3.125a6.043 6.043 0 0 0-1.281 1.25l-3.094-.625c-.256.484-.49.968-.656 1.5a9.126 9.126 0 0 0-.406 2.344l3.062 1.03c.07.593.202 1.182.438 1.72l-2.125 2.375c.277.441.59.864.937 1.25l.625.593c.388.356.804.685 1.25.97l2.375-2.126c.286.127.564.23.875.313.295.079.612.154.906.187l1 3.031a9.08 9.08 0 0 0 1.438-.187h.031a9.056 9.056 0 0 0 2.406-.875l-.656-3.125a6.043 6.043 0 0 0 1.281-1.25l3.094.625c.257-.484.491-.968.656-1.5.23-.739.376-1.538.407-2.344l-3.063-1.031c-.07-.593-.202-1.18-.437-1.719l2.125-2.375a9.095 9.095 0 0 0-.938-1.25l-.625-.594a9.063 9.063 0 0 0-1.25-.968l-2.375 2.125a5.764 5.764 0 0 0-.875-.313 6.403 6.403 0 0 0-.906-.187zm.125 7c.114-.013.228-.008.344 0 .132.007.273.026.406.062 1.066.286 1.692 1.402 1.406 2.469-.285 1.066-1.402 1.692-2.469 1.406-1.066-.286-1.691-1.402-1.406-2.469a2.011 2.011 0 0 1 1.719-1.469z" style="fill:url(#j);fill-opacity:1;stroke:#2e3436;stroke-width:3.02774835;stroke-linecap:round;stroke-linejoin:miter;stroke-miterlimit:4;stroke-dasharray:none;stroke-opacity:1"/><path d="m18.46 26.486-2.075.557.845 4.041a.969.969 0 0 1-1.146 1.146l-4.072-.845-.559 2.076 3.945 1.307a.969.969 0 0 1 .418 1.564l-2.738 3.07 1.494 1.512 3.096-2.762a.969.969 0 0 1 1.564.418l1.307 3.946 2.076-.559-.845-4.041a.969.969 0 0 1 1.146-1.146l4.072.845.559-2.076-3.945-1.307a.969.969 0 0 1-.418-1.564l2.738-3.07-1.494-1.512-3.096 2.762a.969.969 0 0 1-1.564-.418z" style="fill:none;stroke:url(#k);stroke-width:3.02774835;stroke-linecap:round;stroke-linejoin:miter;stroke-miterlimit:4;stroke-dasharray:none;stroke-opacity:1" transform="translate(36.844 36.71)"/><path d="m55.625 62.553-3 .875.937 4.469a.449.449 0 0 1-.125.406.449.449 0 0 1-.406.125l-4.5-.937-.875 3 4.438 1.468c.149.052.241.192.281.344a.417.417 0 0 1-.094.406l-3.031 3.438 2.125 2.156 3.469-3.062a.417.417 0 0 1 .406-.094c.153.04.292.132.344.281l1.468 4.438 3-.875-.937-4.47a.449.449 0 0 1 .125-.405.449.449 0 0 1 .406-.125l4.5.937.875-3-4.437-1.469c-.15-.051-.242-.19-.282-.343a.417.417 0 0 1 .094-.407l3.031-3.437-2.125-2.156-3.468 3.062a.417.417 0 0 1-.407.094c-.152-.04-.292-.132-.343-.281zm.719 5.656a3.001 3.001 0 0 1 0 6 3.001 3.001 0 0 1 0-6z" style="opacity:.9372549;fill:url(#l);fill-opacity:1;stroke:none;stroke-width:3.02774787"/><path d="M56.344 65.71a5.502 5.502 0 0 0-5.5 5.5c0 3.035 2.464 5.5 5.5 5.5s5.5-2.465 5.5-5.5c0-3.037-2.464-5.5-5.5-5.5zm0 3a2.5 2.5 0 0 1 0 5 2.5 2.5 0 0 1 0-5z" style="fill:url(#m);fill-opacity:1;stroke:none;stroke-width:3.02774787"/><circle cx="19.556" cy="34.587" r="3.16" style="fill:none;stroke:url(#n);stroke-width:3.18911314;stroke-linecap:round;stroke-linejoin:miter;stroke-miterlimit:4;stroke-dasharray:none;stroke-opacity:1" transform="translate(37.777 38.372)scale(.9494)"/><circle cx="19.556" cy="34.587" r="3.16" style="fill:none;stroke:url(#o);stroke-width:1.91346705;stroke-linecap:round;stroke-linejoin:miter;stroke-miterlimit:4;stroke-dasharray:none;stroke-opacity:1" transform="matrix(1.58233 0 0 -1.58234 25.4 125.938)"/></g><text xml:space="preserve" x="145.966" y="98.766" style="font-style:normal;font-variant:normal;font-weight:400;font-stretch:normal;font-size:8.61982441px;line-height:100%;font-family:&quot;Arial Black&quot;;-inkscape-font-specification:&quot;Arial Black, Normal&quot;;font-variant-ligatures:normal;font-variant-caps:normal;font-variant-numeric:normal;font-feature-settings:normal;text-align:center;letter-spacing:0;word-spacing:0;writing-mode:lr-tb;text-anchor:middle;fill:#000;fill-opacity:1;stroke:none;stroke-width:.32823056px;stroke-linecap:butt;stroke-linejoin:miter;stroke-opacity:1"><tspan x="145.966" y="98.766">SER</tspan><tspan x="145.966" y="107.386">reader</tspan></text></g><path d="m-214.027 591.093.155 22.146" style="fill:gray;fill-rule:evenodd;stroke:gray;stroke-width:1;stroke-linecap:butt;stroke-linejoin:miter;stroke-miterlimit:4;stroke-dasharray:none;stroke-opacity:1" transform="translate(287.302 -538.292)"/><g style="stroke-width:3.02774787"><path d="m-206.673 318.47-19.165 13.325c-.55.382-.897.996-.897 1.665V351.7c0 .675.333 1.307.89 1.688l19.186 13.096c.7.479 1.623.474 2.32-.01l19.184-13.344c.55-.382.878-1.009.878-1.678v-18.239c0-.676-.335-1.308-.894-1.69l-19.184-13.063a2.044 2.044 0 0 0-2.318.01zM-251.185 318.583l-19.166 13.326c-.549.382-.897.995-.897 1.664v18.24c0 .674.334 1.307.892 1.687l19.185 13.097c.7.478 1.623.474 2.32-.01l19.185-13.345a2.045 2.045 0 0 0 .876-1.678v-18.238c0-.676-.334-1.309-.893-1.69l-19.185-13.064a2.044 2.044 0 0 0-2.317.011z" style="opacity:.2;stroke-width:.2002729" transform="matrix(.36834 0 0 .36834 120.261 -77)"/><path d="m-207.695 318.13-19.165 13.324c-.55.383-.897.996-.897 1.666v18.238c0 .675.333 1.308.891 1.687l19.186 13.098c.7.478 1.623.474 2.32-.01l19.184-13.345a2.045 2.045 0 0 0 .877-1.678v-18.238c0-.677-.335-1.309-.893-1.69l-19.186-13.064a2.043 2.043 0 0 0-2.317.011zM-252.207 318.242l-19.166 13.326c-.55.382-.897.995-.897 1.664v18.238c0 .676.334 1.308.891 1.688l19.185 13.097c.7.479 1.624.474 2.32-.01l19.185-13.344c.55-.382.877-1.009.877-1.678v-18.238c0-.676-.335-1.308-.894-1.69l-19.184-13.064a2.044 2.044 0 0 0-2.317.011z" style="opacity:.2;stroke-width:.2002729" transform="matrix(.36834 0 0 .36834 120.261 -77)"/><path d="m-208.376 318.13-19.166 13.324c-.548.383-.896.996-.896 1.666v18.238c0 .675.334 1.308.891 1.687l19.185 13.098c.7.478 1.624.474 2.32-.01l19.185-13.345a2.045 2.045 0 0 0 .877-1.678v-18.238c0-.677-.334-1.309-.894-1.69l-19.185-13.064a2.044 2.044 0 0 0-2.317.011z" style="fill:#fff;stroke-width:.2002729" transform="matrix(.36834 0 0 .36834 120.261 -77)"/><path d="m-208.376 318.13-19.166 13.324c-.548.383-.896.996-.896 1.666v18.238c0 .675.334 1.308.891 1.687l19.185 13.098c.7.478 1.624.474 2.32-.01l19.185-13.345a2.045 2.045 0 0 0 .877-1.678v-18.238c0-.677-.334-1.309-.894-1.69l-19.185-13.064a2.044 2.044 0 0 0-2.317.011z" style="fill:url(#p);stroke-width:.2002729" transform="matrix(.36834 0 0 .36834 120.261 -77)"/><g style="stroke-width:.40388584"><path d="m132.477 88.927 38.689-26.9 38.689 26.347-38.689 26.911z" style="fill:#fff;stroke-width:.40388584" transform="matrix(.18265 0 0 .18265 12.676 29.468)"/></g><g style="stroke-width:.40388584"><path d="m132.477 88.927 38.689-26.9 38.689 26.347-38.689 26.911z" style="fill:url(#q);stroke-width:.40388584" transform="matrix(.18265 0 0 .18265 12.676 29.468)"/></g><g style="stroke-width:.40388584"><path d="M209.855 125.155V88.374l-38.689 26.911v36.78z" style="fill:#ff6d00;stroke-width:.40388584" transform="matrix(.18265 0 0 .18265 12.676 29.468)"/></g><g style="stroke-width:.40388584"><path d="M132.477 125.654V88.873l38.695 26.412-.006 36.78z" style="fill:#ffa700;stroke-width:.40388584" transform="matrix(.18265 0 0 .18265 12.676 29.468)"/></g><path d="m-229.156 345.259-19.166 13.325c-.55.383-.896.996-.896 1.665v18.238c0 .675.333 1.308.891 1.688l19.185 13.097c.7.478 1.623.475 2.32-.01l19.184-13.345a2.045 2.045 0 0 0 .878-1.677V360c0-.675-.336-1.308-.894-1.689l-19.185-13.064a2.044 2.044 0 0 0-2.317.01z" style="opacity:.2;stroke-width:.2002729" transform="matrix(.36834 0 0 .36834 120.261 -77)"/><path d="m-252.889 318.242-19.165 13.326c-.55.382-.897.995-.897 1.664v18.238c0 .676.333 1.308.892 1.688l19.185 13.097c.7.479 1.623.474 2.319-.01l19.185-13.344c.549-.382.877-1.009.877-1.678v-18.238c0-.676-.335-1.308-.894-1.69l-19.185-13.064a2.044 2.044 0 0 0-2.317.011z" style="fill:url(#r);stroke-width:.2002729" transform="matrix(.36834 0 0 .36834 120.261 -77)"/><g style="stroke-width:.40388584"><path d="m42.708 89.156 38.691-26.9 38.69 26.347-38.69 26.911z" style="fill:#fff;stroke-width:.40388584" transform="matrix(.18265 0 0 .18265 12.676 29.468)"/></g><g style="stroke-width:.40388584"><path d="m42.708 89.156 38.691-26.9 38.69 26.347-38.69 26.911z" style="fill:url(#s);stroke-width:.40388584" transform="matrix(.18265 0 0 .18265 12.676 29.468)"/></g><path d="m-230.178 344.918-19.166 13.325c-.55.382-.897.996-.897 1.665v18.239c0 .674.334 1.307.892 1.687l19.185 13.097c.7.478 1.623.474 2.32-.01l19.184-13.344c.549-.383.877-1.01.877-1.678V359.66c0-.677-.335-1.309-.893-1.69l-19.185-13.063a2.043 2.043 0 0 0-2.317.011z" style="opacity:.2;stroke-width:.2002729" transform="matrix(.36834 0 0 .36834 120.261 -77)"/><g style="stroke-width:.40388584"><path d="M120.089 125.384V88.603l-38.69 26.911v36.781z" style="fill:#cf0000;stroke-width:.40388584" transform="matrix(.18265 0 0 .18265 12.676 29.468)"/></g><g style="stroke-width:.40388584"><path d="M42.708 125.882v-36.78l38.696 26.412-.005 36.781z" style="fill:red;stroke-width:.40388584" transform="matrix(.18265 0 0 .18265 12.676 29.468)"/></g><path d="m-230.86 344.918-19.165 13.325c-.55.382-.897.996-.897 1.665v18.239c0 .674.334 1.307.891 1.687l19.185 13.097c.7.478 1.623.474 2.32-.01l19.186-13.344c.549-.383.876-1.01.876-1.678V359.66c0-.677-.334-1.309-.894-1.69l-19.185-13.063a2.044 2.044 0 0 0-2.317.011z" style="fill:url(#t);stroke-width:.2002729" transform="matrix(.36834 0 0 .36834 120.261 -77)"/><path d="m164.516 129.594-38.691-26.347-38.652 26.873-.039-.027v36.781l38.691 26.412 38.691-26.911z" style="fill:#6c3;stroke-width:.40388584" transform="matrix(.18265 0 0 .18265 12.676 31.807)"/><g style="stroke-width:.40388584"><path d="m125.825 156.504-38.691-26.358 38.691-26.899 38.691 26.347z" style="fill:#fff;stroke-width:.40388584" transform="matrix(.18265 0 0 .18265 12.676 31.807)"/></g><g style="stroke-width:.40388584"><path d="m125.825 156.504-38.691-26.358 38.691-26.899 38.691 26.347z" style="fill:url(#u);stroke-width:.40388584" transform="matrix(.18265 0 0 .18265 12.676 31.807)"/></g><g style="stroke-width:.40388584"><path d="m125.825 193.286 38.691-26.911v-36.781l-38.691 26.91z" style="fill:#093;stroke-width:.40388584" transform="matrix(.18265 0 0 .18265 12.676 31.807)"/></g><g style="stroke-width:.40388584"><path d="m125.825 193.286-38.691-26.412v-36.781l38.697 26.411z" style="fill:#6c3;stroke-width:.40388584" transform="matrix(.18265 0 0 .18265 12.676 31.807)"/></g></g><path d="m-194.172 590.751-40.155-.212" style="fill:purple;fill-rule:evenodd;stroke:purple;stroke-width:1;stroke-linecap:butt;stroke-linejoin:miter;stroke-miterlimit:4;stroke-dasharray:none;stroke-opacity:1;marker-end:url(#v)" transform="translate(287.302 -538.292)"/><text xml:space="preserve" x="-258.884" y="610.843" style="font-style:normal;font-variant:normal;font-weight:400;font-stretch:normal;font-size:4.23333311px;line-height:100%;font-family:&quot;Arial Black&quot;;-inkscape-font-specification:&quot;Arial Black, Normal&quot;;font-variant-ligatures:normal;font-variant-caps:normal;font-variant-numeric:normal;font-feature-settings:normal;text-align:start;letter-spacing:0;word-spacing:0;writing-mode:lr-tb;text-anchor:start;fill:#228b22;fill-opacity:1;stroke:none;stroke-width:.29507166px;stroke-linecap:butt;stroke-linejoin:miter;stroke-opacity:1" transform="translate(287.302 -538.292)"><tspan x="-258.884" y="610.843">synset</tspan></text><text xml:space="preserve" x="-258.056" y="617.645" style="font-style:normal;font-variant:normal;font-weight:400;font-stretch:normal;font-size:4.23333311px;line-height:100%;font-family:&quot;Arial Black&quot;;-inkscape-font-specification:&quot;Arial Black, Normal&quot;;font-variant-ligatures:normal;font-variant-caps:normal;font-variant-numeric:normal;font-feature-settings:normal;text-align:start;letter-spacing:0;word-spacing:0;writing-mode:lr-tb;text-anchor:start;fill:red;fill-opacity:1;stroke:none;stroke-width:.29507166px;stroke-linecap:butt;stroke-linejoin:miter;stroke-opacity:1" transform="translate(287.302 -538.292)"><tspan x="-258.056" y="617.645">sense</tspan></text><text xml:space="preserve" x="-259.079" y="631.588" style="font-style:normal;font-variant:normal;font-weight:400;font-stretch:normal;font-size:4.23333311px;line-height:100%;font-family:&quot;Arial Black&quot;;-inkscape-font-specification:&quot;Arial Black, Normal&quot;;font-variant-ligatures:normal;font-variant-caps:normal;font-variant-numeric:normal;font-feature-settings:normal;text-align:start;letter-spacing:0;word-spacing:0;writing-mode:lr-tb;text-anchor:start;fill:#696969;fill-opacity:1;stroke:none;stroke-width:.29507166px;stroke-linecap:butt;stroke-linejoin:miter;stroke-opacity:1" transform="translate(287.302 -538.292)"><tspan x="-259.079" y="631.588">lemma</tspan></text><text xml:space="preserve" x="-260.189" y="624.814" style="font-style:normal;font-variant:normal;font-weight:400;font-stretch:normal;font-size:4.23333311px;line-height:100%;font-family:&quot;Arial Black&quot;;-inkscape-font-specification:&quot;Arial Black, Normal&quot;;font-variant-ligatures:normal;font-variant-caps:normal;font-variant-numeric:normal;font-feature-settings:normal;text-align:start;letter-spacing:0;word-spacing:0;writing-mode:lr-tb;text-anchor:start;fill:#d2691e;fill-opacity:1;stroke:none;stroke-width:.29507166px;stroke-linecap:butt;stroke-linejoin:miter;stroke-opacity:1" transform="translate(287.302 -538.292)"><tspan x="-260.189" y="624.814">relation</tspan></text><text xml:space="preserve" x="-205.392" y="552.328" style="font-style:normal;font-variant:normal;font-weight:400;font-stretch:normal;font-size:11.28888893px;line-height:100%;font-family:&quot;Arial Black&quot;;-inkscape-font-specification:&quot;Arial Black, Normal&quot;;font-variant-ligatures:normal;font-variant-caps:normal;font-variant-numeric:normal;font-feature-settings:normal;text-align:center;letter-spacing:0;word-spacing:0;writing-mode:lr-tb;text-anchor:middle;fill:#a9a9a9;fill-opacity:1;stroke:none;stroke-width:.29507166px;stroke-linecap:butt;stroke-linejoin:miter;stroke-opacity:1" transform="translate(287.302 -538.292)"><tspan x="-205.392" y="552.328">FROMSER</tspan></text><g style="stroke-width:3.02774787"><g style="stroke-width:3.02774787"><path d="M-100.334 134.128a3.94 3.94 0 0 0-3.935 3.935v46.302a3.94 3.94 0 0 0 3.935 3.936h40.746a3.94 3.94 0 0 0 3.936-3.936v-46.302a3.94 3.94 0 0 0-3.936-3.935z" style="opacity:.2;stroke-width:.70095515" transform="matrix(.36834 0 0 .36834 63.475 51.171)"/><path d="M-100.797 133.665a3.94 3.94 0 0 0-3.935 3.935v46.302a3.94 3.94 0 0 0 3.935 3.936h40.746a3.94 3.94 0 0 0 3.936-3.936V137.6a3.94 3.94 0 0 0-3.936-3.935z" style="opacity:.2;stroke-width:.70095515" transform="matrix(.36834 0 0 .36834 63.475 51.171)"/><path d="M-101.26 133.433a3.94 3.94 0 0 0-3.935 3.936v46.302a3.94 3.94 0 0 0 3.935 3.936h40.746a3.94 3.94 0 0 0 3.936-3.936v-46.302a3.94 3.94 0 0 0-3.936-3.936z" style="opacity:.2;stroke-width:.70095515" transform="matrix(.36834 0 0 .36834 63.475 51.171)"/><path d="M-101.028 133.086a3.94 3.94 0 0 0-3.936 3.936v46.302a3.94 3.94 0 0 0 3.936 3.935h40.746a3.94 3.94 0 0 0 3.935-3.935v-46.302a3.94 3.94 0 0 0-3.935-3.936z" style="fill:url(#w);stroke-width:.70095515" transform="matrix(.36834 0 0 .36834 63.475 51.171)"/><path d="M-104.038 183.324a2.778 2.778 0 0 0 2.778 2.778h40.746a2.778 2.778 0 0 0 2.778-2.778v-46.302a2.778 2.778 0 0 0-2.778-2.779h-40.746a2.778 2.778 0 0 0-2.778 2.779z" style="fill:#fff;stroke-width:.70095515" transform="matrix(.36834 0 0 .36834 63.475 51.171)"/><path d="M-110.52 130.539h59.267v59.267h-59.267z" style="fill:none;stroke-width:.70095515" transform="matrix(.36834 0 0 .36834 63.475 51.171)"/><path d="M11.781 19.5c-.179 0-.27.018-.304.027-.034.01-.014-.001-.043.022-.006.004-.109.1-.211.396L9.803 24.5H37.12l-1.43-4.344c-.191-.476-.262-.517-.314-.552-.07-.048-.143-.104-.565-.104Z" style="color:#000;display:block;overflow:visible;visibility:visible;opacity:.15;fill:none;stroke:url(#x);stroke-width:3.02775049;stroke-linecap:butt;stroke-linejoin:miter;stroke-miterlimit:4;stroke-dashoffset:0;stroke-opacity:1;marker:none" transform="matrix(.08527 0 0 .08527 22.766 99.34)"/><path d="M-104.038 183.324a2.778 2.778 0 0 0 2.778 2.778h40.746a2.778 2.778 0 0 0 2.778-2.778v-46.302a2.778 2.778 0 0 0-2.778-2.779h-40.746a2.778 2.778 0 0 0-2.778 2.779z" style="fill:#fff;stroke-width:.70095515" transform="matrix(.36834 0 0 .36834 63.475 51.171)"/></g><g style="stroke-width:3.02774787" transform="matrix(.36834 0 0 .36834 49.051 34.326)"><rect width="38.046" height="22.207" x="-61.419" y="-227.973" rx="3.593" ry="4.043" style="fill:#d45500;fill-opacity:1;stroke:none;stroke-width:.37727916" transform="scale(1 -1)"/><text xml:space="preserve" x="-55.522" y="222.152" style="font-style:normal;font-variant:normal;font-weight:400;font-stretch:condensed;font-size:13.86738205px;line-height:100%;font-family:Impact;-inkscape-font-specification:&quot;Impact, Condensed&quot;;font-variant-ligatures:normal;font-variant-caps:normal;font-variant-numeric:normal;font-feature-settings:normal;text-align:start;letter-spacing:0;word-spacing:0;writing-mode:lr-tb;text-anchor:start;fill:#fff;fill-opacity:1;stroke:none;stroke-width:.53509021px;stroke-linecap:butt;stroke-linejoin:miter;stroke-opacity:1"><tspan x="-55.522" y="222.152">JAVA</tspan></text></g></g><path d="M-364.818 635.254s-4.568 2.659 3.255 3.556c9.478 1.082 14.322.926 24.764-1.048 0 0 2.75 1.721 6.586 3.212-23.416 10.032-52.995-.582-34.605-5.72zM-367.68 622.16s-5.125 3.794 2.704 4.603c10.126 1.045 18.12 1.131 31.96-1.532 0 0 1.909 1.94 4.917 3-28.307 8.28-59.835.651-39.582-6.07z" style="clip-rule:evenodd;fill:#0074bd;fill-rule:evenodd;stroke-width:.26458332" transform="matrix(.06776 0 0 .06776 57.38 63.846)"/><path d="M-343.56 599.946c5.772 6.645-1.514 12.62-1.514 12.62s14.65-7.561 7.923-17.034c-6.285-8.83-11.103-13.216 14.981-28.343 0 0-40.945 10.223-21.39 32.757z" style="clip-rule:evenodd;fill:#d45500;fill-rule:evenodd;stroke-width:.26458332" transform="matrix(.06776 0 0 .06776 57.38 63.846)"/><path d="M-312.591 644.94s3.381 2.788-3.725 4.944c-13.513 4.092-56.251 5.327-68.122.163-4.265-1.857 3.736-4.431 6.253-4.975 2.625-.568 4.123-.464 4.123-.464-4.745-3.342-30.674 6.563-13.168 9.404 47.738 7.738 87.02-3.485 74.639-9.072zM-362.62 608.592s-21.736 5.164-7.697 7.041c5.93.794 17.744.611 28.757-.313 8.997-.755 18.026-2.37 18.026-2.37s-3.17 1.36-5.465 2.926c-22.078 5.807-64.72 3.103-52.442-2.834 10.378-5.021 18.822-4.45 18.822-4.45zM-323.624 630.387c22.442-11.658 12.065-22.863 4.822-21.354-1.771.37-2.566.69-2.566.69s.66-1.034 1.917-1.479c14.328-5.035 25.345 14.856-4.621 22.733 0 0 .344-.312.448-.59z" style="clip-rule:evenodd;fill:#0074bd;fill-rule:evenodd;stroke-width:.26458332" transform="matrix(.06776 0 0 .06776 57.38 63.846)"/><path d="M-337.15 542.758s12.425 12.432-11.79 31.545c-19.418 15.338-4.427 24.08-.007 34.073-11.336-10.227-19.65-19.231-14.074-27.61 8.19-12.298 30.882-18.262 25.87-38.008z" style="clip-rule:evenodd;fill:#d45500;fill-rule:evenodd;stroke-width:.26458332" transform="matrix(.06776 0 0 .06776 57.38 63.846)"/><path d="M-360.413 661.989c21.536 1.376 54.617-.767 55.4-10.958 0 0-1.505 3.863-17.8 6.929-18.384 3.46-41.063 3.058-54.509.838 0 0 2.755 2.28 16.909 3.19z" style="clip-rule:evenodd;fill:#0074bd;fill-rule:evenodd;stroke-width:.26458332" transform="matrix(.06776 0 0 .06776 57.38 63.846)"/><g style="stroke-width:3.02774787"><g style="stroke-width:3.02774787"><path d="M-100.334 134.128a3.94 3.94 0 0 0-3.935 3.935v46.302a3.94 3.94 0 0 0 3.935 3.936h40.746a3.94 3.94 0 0 0 3.936-3.936v-46.302a3.94 3.94 0 0 0-3.936-3.935z" style="opacity:.2;stroke-width:.70095515" transform="matrix(.36834 0 0 .36834 65.94 53.828)"/><path d="M-100.797 133.665a3.94 3.94 0 0 0-3.935 3.935v46.302a3.94 3.94 0 0 0 3.935 3.936h40.746a3.94 3.94 0 0 0 3.936-3.936V137.6a3.94 3.94 0 0 0-3.936-3.935z" style="opacity:.2;stroke-width:.70095515" transform="matrix(.36834 0 0 .36834 65.94 53.828)"/><path d="M-101.26 133.433a3.94 3.94 0 0 0-3.935 3.936v46.302a3.94 3.94 0 0 0 3.935 3.936h40.746a3.94 3.94 0 0 0 3.936-3.936v-46.302a3.94 3.94 0 0 0-3.936-3.936z" style="opacity:.2;stroke-width:.70095515" transform="matrix(.36834 0 0 .36834 65.94 53.828)"/><path d="M-101.028 133.086a3.94 3.94 0 0 0-3.936 3.936v46.302a3.94 3.94 0 0 0 3.936 3.935h40.746a3.94 3.94 0 0 0 3.935-3.935v-46.302a3.94 3.94 0 0 0-3.935-3.936z" style="fill:url(#y);stroke-width:.70095515" transform="matrix(.36834 0 0 .36834 65.94 53.828)"/><path d="M-104.038 183.324a2.778 2.778 0 0 0 2.778 2.778h40.746a2.778 2.778 0 0 0 2.778-2.778v-46.302a2.778 2.778 0 0 0-2.778-2.779h-40.746a2.778 2.778 0 0 0-2.778 2.779z" style="fill:#fff;stroke-width:.70095515" transform="matrix(.36834 0 0 .36834 65.94 53.828)"/><path d="M-110.52 130.539h59.267v59.267h-59.267z" style="fill:none;stroke-width:.70095515" transform="matrix(.36834 0 0 .36834 65.94 53.828)"/><path d="M11.781 19.5c-.179 0-.27.018-.304.027-.034.01-.014-.001-.043.022-.006.004-.109.1-.211.396L9.803 24.5H37.12l-1.43-4.344c-.191-.476-.262-.517-.314-.552-.07-.048-.143-.104-.565-.104Z" style="color:#000;display:block;overflow:visible;visibility:visible;opacity:.15;fill:none;stroke:url(#z);stroke-width:3.02775049;stroke-linecap:butt;stroke-linejoin:miter;stroke-miterlimit:4;stroke-dashoffset:0;stroke-opacity:1;marker:none" transform="matrix(.08527 0 0 .08527 25.23 101.996)"/><path d="M-104.038 183.324a2.778 2.778 0 0 0 2.778 2.778h40.746a2.778 2.778 0 0 0 2.778-2.778v-46.302a2.778 2.778 0 0 0-2.778-2.779h-40.746a2.778 2.778 0 0 0-2.778 2.779z" style="fill:#fff;stroke-width:.70095515" transform="matrix(.36834 0 0 .36834 65.94 53.828)"/></g><g style="stroke-width:3.02774787" transform="matrix(.36834 0 0 .36834 51.516 36.982)"><rect width="38.046" height="22.207" x="-61.419" y="-227.973" rx="3.593" ry="4.043" style="fill:#d45500;fill-opacity:1;stroke:none;stroke-width:.37727916" transform="scale(1 -1)"/><text xml:space="preserve" x="-55.522" y="222.152" style="font-style:normal;font-variant:normal;font-weight:400;font-stretch:condensed;font-size:13.86738205px;line-height:100%;font-family:Impact;-inkscape-font-specification:&quot;Impact, Condensed&quot;;font-variant-ligatures:normal;font-variant-caps:normal;font-variant-numeric:normal;font-feature-settings:normal;text-align:start;letter-spacing:0;word-spacing:0;writing-mode:lr-tb;text-anchor:start;fill:#fff;fill-opacity:1;stroke:none;stroke-width:.53509021px;stroke-linecap:butt;stroke-linejoin:miter;stroke-opacity:1"><tspan x="-55.522" y="222.152">JAVA</tspan></text></g></g><path d="M-364.818 635.254s-4.568 2.659 3.255 3.556c9.478 1.082 14.322.926 24.764-1.048 0 0 2.75 1.721 6.586 3.212-23.416 10.032-52.995-.582-34.605-5.72zM-367.68 622.16s-5.125 3.794 2.704 4.603c10.126 1.045 18.12 1.131 31.96-1.532 0 0 1.909 1.94 4.917 3-28.307 8.28-59.835.651-39.582-6.07z" style="clip-rule:evenodd;fill:#0074bd;fill-rule:evenodd;stroke-width:.26458332" transform="matrix(.06776 0 0 .06776 59.845 66.503)"/><path d="M-343.56 599.946c5.772 6.645-1.514 12.62-1.514 12.62s14.65-7.561 7.923-17.034c-6.285-8.83-11.103-13.216 14.981-28.343 0 0-40.945 10.223-21.39 32.757z" style="clip-rule:evenodd;fill:#d45500;fill-rule:evenodd;stroke-width:.26458332" transform="matrix(.06776 0 0 .06776 59.845 66.503)"/><path d="M-312.591 644.94s3.381 2.788-3.725 4.944c-13.513 4.092-56.251 5.327-68.122.163-4.265-1.857 3.736-4.431 6.253-4.975 2.625-.568 4.123-.464 4.123-.464-4.745-3.342-30.674 6.563-13.168 9.404 47.738 7.738 87.02-3.485 74.639-9.072zM-362.62 608.592s-21.736 5.164-7.697 7.041c5.93.794 17.744.611 28.757-.313 8.997-.755 18.026-2.37 18.026-2.37s-3.17 1.36-5.465 2.926c-22.078 5.807-64.72 3.103-52.442-2.834 10.378-5.021 18.822-4.45 18.822-4.45zM-323.624 630.387c22.442-11.658 12.065-22.863 4.822-21.354-1.771.37-2.566.69-2.566.69s.66-1.034 1.917-1.479c14.328-5.035 25.345 14.856-4.621 22.733 0 0 .344-.312.448-.59z" style="clip-rule:evenodd;fill:#0074bd;fill-rule:evenodd;stroke-width:.26458332" transform="matrix(.06776 0 0 .06776 59.845 66.503)"/><path d="M-337.15 542.758s12.425 12.432-11.79 31.545c-19.418 15.338-4.427 24.08-.007 34.073-11.336-10.227-19.65-19.231-14.074-27.61 8.19-12.298 30.882-18.262 25.87-38.008z" style="clip-rule:evenodd;fill:#d45500;fill-rule:evenodd;stroke-width:.26458332" transform="matrix(.06776 0 0 .06776 59.845 66.503)"/><path d="M-360.413 661.989c21.536 1.376 54.617-.767 55.4-10.958 0 0-1.505 3.863-17.8 6.929-18.384 3.46-41.063 3.058-54.509.838 0 0 2.755 2.28 16.909 3.19z" style="clip-rule:evenodd;fill:#0074bd;fill-rule:evenodd;stroke-width:.26458332" transform="matrix(.06776 0 0 .06776 59.845 66.503)"/><g style="stroke-width:3.02774787"><g style="stroke-width:3.02774787"><path d="M-100.334 134.128a3.94 3.94 0 0 0-3.935 3.935v46.302a3.94 3.94 0 0 0 3.935 3.936h40.746a3.94 3.94 0 0 0 3.936-3.936v-46.302a3.94 3.94 0 0 0-3.936-3.935z" style="opacity:.2;stroke-width:.70095515" transform="matrix(.36834 0 0 .36834 68.221 56.562)"/><path d="M-100.797 133.665a3.94 3.94 0 0 0-3.935 3.935v46.302a3.94 3.94 0 0 0 3.935 3.936h40.746a3.94 3.94 0 0 0 3.936-3.936V137.6a3.94 3.94 0 0 0-3.936-3.935z" style="opacity:.2;stroke-width:.70095515" transform="matrix(.36834 0 0 .36834 68.221 56.562)"/><path d="M-101.26 133.433a3.94 3.94 0 0 0-3.935 3.936v46.302a3.94 3.94 0 0 0 3.935 3.936h40.746a3.94 3.94 0 0 0 3.936-3.936v-46.302a3.94 3.94 0 0 0-3.936-3.936z" style="opacity:.2;stroke-width:.70095515" transform="matrix(.36834 0 0 .36834 68.221 56.562)"/><path d="M-101.028 133.086a3.94 3.94 0 0 0-3.936 3.936v46.302a3.94 3.94 0 0 0 3.936 3.935h40.746a3.94 3.94 0 0 0 3.935-3.935v-46.302a3.94 3.94 0 0 0-3.935-3.936z" style="fill:url(#A);stroke-width:.70095515" transform="matrix(.36834 0 0 .36834 68.221 56.562)"/><path d="M-104.038 183.324a2.778 2.778 0 0 0 2.778 2.778h40.746a2.778 2.778 0 0 0 2.778-2.778v-46.302a2.778 2.778 0 0 0-2.778-2.779h-40.746a2.778 2.778 0 0 0-2.778 2.779z" style="fill:#fff;stroke-width:.70095515" transform="matrix(.36834 0 0 .36834 68.221 56.562)"/><path d="M-110.52 130.539h59.267v59.267h-59.267z" style="fill:none;stroke-width:.70095515" transform="matrix(.36834 0 0 .36834 68.221 56.562)"/><path d="M11.781 19.5c-.179 0-.27.018-.304.027-.034.01-.014-.001-.043.022-.006.004-.109.1-.211.396L9.803 24.5H37.12l-1.43-4.344c-.191-.476-.262-.517-.314-.552-.07-.048-.143-.104-.565-.104Z" style="color:#000;display:block;overflow:visible;visibility:visible;opacity:.15;fill:none;stroke:url(#B);stroke-width:3.02775049;stroke-linecap:butt;stroke-linejoin:miter;stroke-miterlimit:4;stroke-dashoffset:0;stroke-opacity:1;marker:none" transform="matrix(.08527 0 0 .08527 27.513 104.73)"/><path d="M-104.038 183.324a2.778 2.778 0 0 0 2.778 2.778h40.746a2.778 2.778 0 0 0 2.778-2.778v-46.302a2.778 2.778 0 0 0-2.778-2.779h-40.746a2.778 2.778 0 0 0-2.778 2.779z" style="fill:#fff;stroke-width:.70095515" transform="matrix(.36834 0 0 .36834 68.221 56.562)"/></g><g style="stroke-width:3.02774787" transform="matrix(.36834 0 0 .36834 53.798 39.716)"><rect width="38.046" height="22.207" x="-61.419" y="-227.973" rx="3.593" ry="4.043" style="fill:#d45500;fill-opacity:1;stroke:none;stroke-width:.37727916" transform="scale(1 -1)"/><text xml:space="preserve" x="-55.522" y="222.152" style="font-style:normal;font-variant:normal;font-weight:400;font-stretch:condensed;font-size:13.86738205px;line-height:100%;font-family:Impact;-inkscape-font-specification:&quot;Impact, Condensed&quot;;font-variant-ligatures:normal;font-variant-caps:normal;font-variant-numeric:normal;font-feature-settings:normal;text-align:start;letter-spacing:0;word-spacing:0;writing-mode:lr-tb;text-anchor:start;fill:#fff;fill-opacity:1;stroke:none;stroke-width:.53509021px;stroke-linecap:butt;stroke-linejoin:miter;stroke-opacity:1"><tspan x="-55.522" y="222.152">JAVA</tspan></text></g></g><path d="M-364.818 635.254s-4.568 2.659 3.255 3.556c9.478 1.082 14.322.926 24.764-1.048 0 0 2.75 1.721 6.586 3.212-23.416 10.032-52.995-.582-34.605-5.72zM-367.68 622.16s-5.125 3.794 2.704 4.603c10.126 1.045 18.12 1.131 31.96-1.532 0 0 1.909 1.94 4.917 3-28.307 8.28-59.835.651-39.582-6.07z" style="clip-rule:evenodd;fill:#0074bd;fill-rule:evenodd;stroke-width:.26458332" transform="matrix(.06776 0 0 .06776 62.128 69.236)"/><path d="M-343.56 599.946c5.772 6.645-1.514 12.62-1.514 12.62s14.65-7.561 7.923-17.034c-6.285-8.83-11.103-13.216 14.981-28.343 0 0-40.945 10.223-21.39 32.757z" style="clip-rule:evenodd;fill:#d45500;fill-rule:evenodd;stroke-width:.26458332" transform="matrix(.06776 0 0 .06776 62.128 69.236)"/><path d="M-312.591 644.94s3.381 2.788-3.725 4.944c-13.513 4.092-56.251 5.327-68.122.163-4.265-1.857 3.736-4.431 6.253-4.975 2.625-.568 4.123-.464 4.123-.464-4.745-3.342-30.674 6.563-13.168 9.404 47.738 7.738 87.02-3.485 74.639-9.072zM-362.62 608.592s-21.736 5.164-7.697 7.041c5.93.794 17.744.611 28.757-.313 8.997-.755 18.026-2.37 18.026-2.37s-3.17 1.36-5.465 2.926c-22.078 5.807-64.72 3.103-52.442-2.834 10.378-5.021 18.822-4.45 18.822-4.45zM-323.624 630.387c22.442-11.658 12.065-22.863 4.822-21.354-1.771.37-2.566.69-2.566.69s.66-1.034 1.917-1.479c14.328-5.035 25.345 14.856-4.621 22.733 0 0 .344-.312.448-.59z" style="clip-rule:evenodd;fill:#0074bd;fill-rule:evenodd;stroke-width:.26458332" transform="matrix(.06776 0 0 .06776 62.128 69.236)"/><path d="M-337.15 542.758s12.425 12.432-11.79 31.545c-19.418 15.338-4.427 24.08-.007 34.073-11.336-10.227-19.65-19.231-14.074-27.61 8.19-12.298 30.882-18.262 25.87-38.008z" style="clip-rule:evenodd;fill:#d45500;fill-rule:evenodd;stroke-width:.26458332" transform="matrix(.06776 0 0 .06776 62.128 69.236)"/><path d="M-360.413 661.989c21.536 1.376 54.617-.767 55.4-10.958 0 0-1.505 3.863-17.8 6.929-18.384 3.46-41.063 3.058-54.509.838 0 0 2.755 2.28 16.909 3.19z" style="clip-rule:evenodd;fill:#0074bd;fill-rule:evenodd;stroke-width:.26458332" transform="matrix(.06776 0 0 .06776 62.128 69.236)"/><g style="stroke-width:3.02774787"><g style="stroke-width:3.02774787"><path d="M-100.334 134.128a3.94 3.94 0 0 0-3.935 3.935v46.302a3.94 3.94 0 0 0 3.935 3.936h40.746a3.94 3.94 0 0 0 3.936-3.936v-46.302a3.94 3.94 0 0 0-3.936-3.935z" style="opacity:.2;stroke-width:.70095515" transform="rotate(-.818 -226 -8960.652)scale(.35053)"/><path d="M-100.797 133.665a3.94 3.94 0 0 0-3.935 3.935v46.302a3.94 3.94 0 0 0 3.935 3.936h40.746a3.94 3.94 0 0 0 3.936-3.936V137.6a3.94 3.94 0 0 0-3.936-3.935z" style="opacity:.2;stroke-width:.70095515" transform="rotate(-.818 -226 -8960.652)scale(.35053)"/><path d="M-101.26 133.433a3.94 3.94 0 0 0-3.935 3.936v46.302a3.94 3.94 0 0 0 3.935 3.936h40.746a3.94 3.94 0 0 0 3.936-3.936v-46.302a3.94 3.94 0 0 0-3.936-3.936z" style="opacity:.2;stroke-width:.70095515" transform="rotate(-.818 -226 -8960.652)scale(.35053)"/><path d="M-101.028 133.086a3.94 3.94 0 0 0-3.936 3.936v46.302a3.94 3.94 0 0 0 3.936 3.935h40.746a3.94 3.94 0 0 0 3.935-3.935v-46.302a3.94 3.94 0 0 0-3.935-3.936z" style="fill:url(#C);stroke-width:.70095515" transform="rotate(-.818 -226 -8960.652)scale(.35053)"/><path d="M-104.038 183.324a2.778 2.778 0 0 0 2.778 2.778h40.746a2.778 2.778 0 0 0 2.778-2.778v-46.302a2.778 2.778 0 0 0-2.778-2.779h-40.746a2.778 2.778 0 0 0-2.778 2.779z" style="fill:#fff;stroke-width:.70095515" transform="rotate(-.818 -226 -8960.652)scale(.35053)"/><path d="M-110.52 130.539h59.267v59.267h-59.267z" style="fill:none;stroke-width:.70095515" transform="rotate(-.818 -226 -8960.652)scale(.35053)"/><path d="M11.781 19.5c-.179 0-.27.018-.304.027-.034.01-.014-.001-.043.022-.006.004-.109.1-.211.396L9.803 24.5H37.12l-1.43-4.344c-.191-.476-.262-.517-.314-.552-.07-.048-.143-.104-.565-.104Z" style="color:#000;display:block;overflow:visible;visibility:visible;opacity:.15;fill:none;stroke:url(#D);stroke-width:3.02775049;stroke-linecap:butt;stroke-linejoin:miter;stroke-miterlimit:4;stroke-dashoffset:0;stroke-opacity:1;marker:none" transform="rotate(-.749 3004.656 -6266.608)scale(.08115)"/><path d="M-104.038 183.324a2.778 2.778 0 0 0 2.778 2.778h40.746a2.778 2.778 0 0 0 2.778-2.778v-46.302a2.778 2.778 0 0 0-2.778-2.779h-40.746a2.778 2.778 0 0 0-2.778 2.779z" style="fill:#fff;stroke-width:.70095515" transform="rotate(-.818 -226 -8960.652)scale(.35053)"/></g><g style="stroke-width:3.02774787" transform="rotate(-.818 -1344.87 -7988.864)scale(.35053)"><rect width="38.046" height="22.207" x="-61.419" y="-227.973" rx="3.593" ry="4.043" style="fill:purple;fill-opacity:1;stroke:none;stroke-width:.37727916" transform="scale(1 -1)"/><text xml:space="preserve" x="-55.026" y="222.22" style="font-style:normal;font-variant:normal;font-weight:400;font-stretch:condensed;font-size:13.86743069px;line-height:100%;font-family:Impact;-inkscape-font-specification:&quot;Impact, Condensed&quot;;font-variant-ligatures:normal;font-variant-caps:normal;font-variant-numeric:normal;font-feature-settings:normal;text-align:start;letter-spacing:0;word-spacing:0;writing-mode:lr-tb;text-anchor:start;fill:#fff;fill-opacity:1;stroke:none;stroke-width:.53509021px;stroke-linecap:butt;stroke-linejoin:miter;stroke-opacity:1"><tspan x="-55.026" y="222.22">SER</tspan></text></g></g><text xml:space="preserve" x="-205.506" y="576.538" style="font-style:normal;font-variant:normal;font-weight:400;font-stretch:normal;font-size:3.88055563px;line-height:100%;font-family:&quot;Arial Black&quot;;-inkscape-font-specification:&quot;Arial Black, Normal&quot;;font-variant-ligatures:normal;font-variant-caps:normal;font-variant-numeric:normal;font-feature-settings:normal;text-align:start;letter-spacing:0;word-spacing:0;writing-mode:lr-tb;text-anchor:start;fill:purple;fill-opacity:1;stroke:none;stroke-width:.28080648px;stroke-linecap:butt;stroke-linejoin:miter;stroke-opacity:1" transform="rotate(-.816 -37653.936 -20442.837)"><tspan x="-205.506" y="576.538" style="font-style:normal;font-variant:normal;font-weight:400;font-stretch:normal;font-size:3.88055563px;font-family:&quot;Arial Black&quot;;-inkscape-font-specification:&quot;Arial Black, Normal&quot;;font-variant-ligatures:normal;font-variant-caps:normal;font-variant-numeric:normal;font-feature-settings:normal;text-align:start;writing-mode:lr-tb;text-anchor:start;stroke-width:.28080648px">serialized</tspan></text><text xml:space="preserve" x="-127.644" y="550.451" style="font-style:normal;font-variant:normal;font-weight:400;font-stretch:normal;font-size:2.17226887px;line-height:100%;font-family:&quot;Arial Black&quot;;-inkscape-font-specification:&quot;Arial Black, Normal&quot;;font-variant-ligatures:normal;font-variant-caps:normal;font-variant-numeric:normal;font-feature-settings:normal;text-align:start;letter-spacing:0;word-spacing:0;writing-mode:lr-tb;text-anchor:start;opacity:.98000004;fill:purple;fill-opacity:1;stroke:none;stroke-width:.29507166px;stroke-linecap:butt;stroke-linejoin:miter;stroke-opacity:1;filter:url(#E)" transform="matrix(1.78638 -.00908 .00908 1.78638 284.285 -934.35)"><tspan x="-127.644" y="550.451">deserialize</tspan></text></svg>